<svg width="554" height="200" viewBox="0 0 554 200" fill="none" xmlns="http://www.w3.org/2000/svg">
<g clip-path="url(#clip0_23849_471610)">
<path d="M385.162 158.021C384.501 157.909 383.87 158.366 383.768 159.028C383.667 159.689 384.114 160.32 384.775 160.421C385.437 160.533 386.067 160.076 386.169 159.414C386.281 158.753 385.823 158.132 385.162 158.021Z" fill="white"/>
<path d="M1.18359 97.2051C124.178 204.055 223.682 202.111 264.294 194.838C292.168 189.843 309.626 183.383 333.024 168.296C366.463 146.739 380.95 102.048 368.478 64.1218C352.953 16.9384 301.935 -8.82023 254.741 6.70411C207.558 22.2285 181.799 73.2472 197.323 120.441C206.428 148.112 228.982 168.692 253.327 177.34C273.592 184.532 324.438 199.751 380.94 162.416" stroke="white" stroke-width="2.1337" stroke-miterlimit="10" stroke-linecap="round" stroke-linejoin="round"/>
<path d="M283.42 170.676C327.21 170.676 362.71 135.177 362.71 91.3863C362.71 47.5956 327.21 12.0962 283.42 12.0962C239.629 12.0962 204.129 47.5956 204.129 91.3863C204.129 135.177 239.629 170.676 283.42 170.676Z" fill="white"/>
<path d="M313.909 53.308C319.483 53.308 324.031 48.7707 324.031 43.1856C324.031 37.6005 319.494 33.0632 313.909 33.0632C308.323 33.0632 303.786 37.6005 303.786 43.1856C303.786 48.7707 308.323 53.308 313.909 53.308Z" fill="#0054A5"/>
<path d="M252.92 53.308C258.495 53.308 263.043 48.7707 263.043 43.1856C263.043 37.6005 258.505 33.0632 252.92 33.0632C247.335 33.0632 242.798 37.6005 242.798 43.1856C242.798 48.7707 247.345 53.308 252.92 53.308Z" fill="#FFD600"/>
<path d="M319.666 59.0764H309.819C307.418 59.0764 305.454 61.0297 305.454 63.4407V67.4795C305.454 78.7718 298.028 83.4006 293.033 85.2318C292.931 85.2623 292.84 85.303 292.738 85.3335C292.636 85.3742 292.545 85.4047 292.443 85.4352C289.33 86.5747 286.278 86.9511 283.572 86.9409V86.9511C288.129 86.9917 291.822 90.7152 291.822 95.2728C291.822 99.8202 288.16 103.523 283.633 103.594C291.965 103.655 297.143 102.13 297.743 101.936C304.183 100.39 309.544 97.6838 313.685 93.7976C320.541 87.3478 324.021 77.8664 324.021 65.6076V63.4204C324.031 61.0398 322.077 59.0764 319.666 59.0764Z" fill="#0054A5"/>
<path d="M283.501 86.9612C283.491 86.9612 283.491 86.9612 283.481 86.9612V86.9511C277.875 86.9104 273.786 85.2318 273.786 85.2318C268.79 83.4006 261.364 78.7819 261.364 67.4795V63.4407C261.364 61.0297 259.411 59.0764 257 59.0764H247.162C244.751 59.0764 242.798 61.0297 242.798 63.4407V65.628C242.798 77.8867 246.277 87.3682 253.124 93.818C257.244 97.694 262.575 100.39 268.984 101.936H268.841C269.106 101.997 269.37 102.048 269.635 102.099C271.354 102.486 273.155 102.791 275.027 103.015C278.007 103.401 280.734 103.574 283.206 103.605C283.348 103.605 283.491 103.615 283.633 103.615C288.16 103.533 291.823 99.8405 291.823 95.2931C291.833 90.6948 288.099 86.9612 283.501 86.9612Z" fill="#FFD600"/>
<path d="M267.539 133.727C267.356 134.501 267.397 135.284 268.007 136.199C269.106 137.827 271.354 138.722 273.216 137.929C275.434 136.983 281.141 133.707 285.251 129.638V139.923C285.251 140.655 285.851 141.256 286.583 141.256H289.9C290.632 141.256 291.233 140.655 291.233 139.923V121.916C291.233 121.489 291.578 121.153 291.996 121.153H294.773C295.088 121.153 295.353 121.408 295.353 121.733V139.933C295.353 140.665 295.953 141.266 296.685 141.266H299.992C300.724 141.266 301.324 140.665 301.324 139.933V116.718C301.324 115.985 300.724 115.385 299.992 115.385H286.573C285.841 115.385 285.241 115.985 285.241 116.718C285.241 117.359 285.23 119.434 285.241 120.075C282.29 117.684 280.968 116.514 275.169 115.894C273.44 115.711 271.669 115.843 270.001 116.362C266.003 117.593 266.023 119.831 266.013 120.248C265.962 121.682 266.42 123.086 267.315 124.215C268.231 125.375 268.729 126.81 268.78 128.285C268.821 129.353 268.638 130.411 268.322 131.428C268.078 132.262 267.712 132.985 267.539 133.727ZM272.697 122.659C272.371 122.374 272.453 121.845 272.85 121.682C274.986 120.767 282.758 122.903 282.453 124.46C282.127 126.047 272.768 133.036 273.531 130.645C273.653 130.268 274.06 128.915 274.162 128.488C274.325 127.786 274.416 127.074 274.386 126.362C274.314 124.765 273.653 123.839 272.697 122.659Z" fill="#4D4D4F"/>
<path d="M325.201 115.375H304.691C303.939 115.375 303.338 115.955 303.359 116.667L303.267 120.146C303.267 120.166 303.267 120.187 303.267 120.207C303.318 121.143 303.125 123.32 303.877 124.704C304.274 125.436 305.088 125.884 306.319 126.067C307.55 126.25 308.781 126.352 309.168 126.759C310.673 128.346 307.957 129.048 306.197 129.668C303.816 130.502 303.318 131.255 303.318 133.127C303.318 135.162 303.003 136.26 303.816 138.173C304.691 140.238 306.665 139.913 308.628 139.78C320.541 138.956 320.663 142.497 324.366 140.787C325.953 140.055 326.493 138.814 326.543 137.023C326.564 136.291 326.533 135.548 326.533 134.816V127.867V116.636C326.543 115.934 325.943 115.375 325.201 115.375ZM319.147 134.5C315.831 133.86 311.629 134.073 311.233 134.002C310.266 133.829 310.134 132.893 311.243 132.242C311.874 131.866 316.024 130.594 316.096 127.328V127.288C316.126 125.68 315.109 124.215 313.562 123.656L311.64 122.954C310.673 122.771 310.256 121.926 310.256 121.458C310.256 121.265 310.368 121.184 310.5 121.143C310.653 121.102 312.81 121.133 312.81 121.133H318.995C319.738 121.133 320.328 121.703 320.328 122.394C320.409 124.124 320.47 125.222 320.521 126.952C320.551 128.285 320.582 129.627 320.572 130.96C320.572 131.306 320.735 132.791 320.735 133.798C320.755 135.029 319.544 134.582 319.147 134.5Z" fill="#4D4D4F"/>
<path d="M263.46 121.123C264.192 121.123 264.792 120.512 264.792 119.749V116.768C264.792 116.016 264.192 115.395 263.46 115.395L260.214 115.334C261.567 113.33 261.466 108.162 256.135 107.246C252.91 106.697 247.884 109.383 244.771 107.012C243.561 106.087 242.309 105.954 241.791 107.328C241.546 107.969 241.353 108.66 241.292 109.23C241.231 109.759 241.16 111.173 242.645 112.17C244.314 113.279 247.772 113.696 253.164 112.577C255.87 112.017 256.776 115.395 253.907 115.395H247.101H241.902C241.17 115.395 240.57 116.005 240.57 116.768V119.749C240.57 120.512 241.17 121.123 241.902 121.123H249.705C249.705 121.123 249.705 124.693 249.726 128.284C249.736 130.889 251.15 131.947 255.301 131.448L258.678 130.879C259.044 130.807 259.37 131.133 259.309 131.509C258.861 134.266 255.718 135.66 252.116 135.436C249.675 135.284 248.057 134.521 247.376 133.3C245.646 130.187 246.053 124.307 246.053 124.307C246.053 123.554 245.453 122.933 244.72 122.933H242.045C241.719 122.933 241.414 123.055 241.18 123.259C240.885 123.513 240.499 124.795 240.397 125.934C240.244 127.613 240.183 130.207 240.58 131.977C241.974 138.346 245.433 141.459 252.951 141.459C256.877 141.459 259.665 140.024 261.547 138.437C263.633 136.677 264.802 134.378 264.802 131.601V127.359C264.802 126.738 264.65 125.395 263.327 124.937C262.819 124.765 262.259 124.795 261.75 124.978L257.946 125.884C257.915 125.894 257.885 125.904 257.854 125.914C256.715 126.179 256.145 126.077 255.687 125.65C255.351 125.344 255.179 124.887 255.189 124.419L255.199 121.133L263.46 121.123Z" fill="#4D4D4F"/>
<path d="M313.777 149.679C316.361 150.005 318.548 147.817 318.222 145.233C317.998 143.473 316.574 142.039 314.804 141.815C312.21 141.49 310.023 143.677 310.358 146.261C310.592 148.031 312.017 149.455 313.777 149.679Z" fill="#4D4D4F"/>
<rect x="-0.5" y="0.5" width="555" height="199.872" stroke="#FFD600" stroke-opacity="0.01"/>
</g>
<defs>
<clipPath id="clip0_23849_471610">
<rect width="554" height="200" fill="white"/>
</clipPath>
</defs>
</svg>
